<svg fill="#000000" xmlns="http://www.w3.org/2000/svg"  viewBox="0 0 50 50" width="50px" height="50px"><path d="M 3 3 L 3 25 L 25 25 L 25 3 Z M 25 25 L 25 47 L 47 47 L 47 25 Z M 7 8 L 11.730469 8 C 13.75 8 15.15625 9.398438 15.15625 11.199219 C 15.15625 12.726563 14.730469 13.582031 14 14 C 14.746094 14.101563 15.039063 14.394531 15.457031 14.875 C 15.867188 15.367188 16.125 16.054688 16.125 16.699219 C 16.125 19.398438 14.152344 20 11.855469 20 L 7 20 Z M 9 10 L 9 13 L 11.355469 13 C 12.203125 13 12.957031 12.601563 12.957031 11.5 C 12.957031 10.601563 12.488281 10 11.355469 10 Z M 17 12 L 19 12 L 19 13 C 19.417969 12.269531 20 12 21 12 L 21 14 C 19.800781 14 19 14.5 19 16.199219 L 19 20 L 17 20 Z M 9 15 L 9 18 L 11.71875 18 C 12.976563 18 13.65625 17.613281 13.65625 16.546875 C 13.65625 15.386719 12.878906 15 11.71875 15 Z M 28 30 L 32.730469 30 C 34.75 30 36.160156 31.398438 36.160156 33.199219 C 36.160156 34.730469 35.730469 35.578125 35 36 C 35.75 36.101563 36.039063 36.390625 36.460938 36.878906 C 36.871094 37.371094 37.121094 38.050781 37.121094 38.699219 C 37.121094 41.398438 35.148438 42 32.847656 42 L 28 42 Z M 30 32 L 30 35 L 32.359375 35 C 33.199219 35 33.960938 34.601563 33.960938 33.5 C 33.960938 32.601563 33.488281 32 32.359375 32 Z M 41 33.859375 C 42.398438 33.859375 44 34.59375 44 35.890625 L 44 42 L 42.402344 42 C 42.402344 41.75 42.410156 41.300781 42.410156 41.097656 C 41.808594 41.699219 41.109375 42 40.3125 42 C 39.109375 42 38 41.097656 38 39.597656 C 38 38.097656 39.109375 37.121094 40.011719 36.921875 C 40.011719 36.921875 41.910156 36.5 42.3125 36.300781 C 42.3125 35.8125 41.699219 35.5 41 35.5 C 40.386719 35.5 40.148438 35.65625 40 36 L 38.347656 36 C 38.703125 34.390625 39.65625 33.859375 41 33.859375 Z M 30 37 L 30 40 L 32.71875 40 C 33.980469 40 34.660156 39.609375 34.660156 38.550781 C 34.660156 37.390625 33.878906 37 32.71875 37 Z M 42 38.328125 C 41.917969 38.246094 41.136719 38.546875 41.136719 38.546875 C 40.804688 38.6875 40.390625 38.890625 40.390625 39.292969 C 40.390625 39.695313 40.800781 39.9375 41.121094 39.9375 C 41.523438 39.9375 42 39.695313 42 39.050781 Z"/></svg>